# AST/ASF file generated using VICON BodyLanguage
# -----------------------------------------------
:version 1.10
:name VICON
:units
  mass 1.0
  length 0.45
  angle deg
:documentation
   .ast/.asf automatically generated from VICON data using
   VICON BodyBuilder and BodyLanguage model FoxedUp or BRILLIANT.MOD
:root
   order TX TY TZ RX RY RZ
   axis XYZ
   position 0 0 0  
   orientation 0 0 0 
:bonedata
  begin
     id 1 
     name lhipjoint
     direction 0.588788 -0.725889 0.355548 
     length 2.37778 
     axis 0 0 0  XYZ
  end
  begin
     id 2 
     name lfemur
     direction 0.34202 -0.939693 0  
     length 6.86393  
     axis 0 0 20  XYZ
    dof rx ry rz
    limits (-160.0 20.0)
           (-70.0 70.0)
           (-60.0 70.0)
  end
  begin
     id 3 
     name ltibia
     direction 0.34202 -0.939693 0   
     length 7.32851   
     axis 0 0 20   XYZ
    dof rx
    limits (-10.0 170.0)
  end
  begin
     id 4 
     name lfoot
     direction 0.0626533 -0.172138 0.983078   
     length 1.98929   
     axis -90 7.62852e-016 20   XYZ
    dof rx rz
    limits (-45.0 90.0)
           (-70.0 20.0)
  end
  begin
     id 5 
     name ltoes
     direction 1.53647e-011 -4.21734e-011 1   
     length 1.00479   
     axis -90 7.62852e-016 20   XYZ
    dof rx
    limits (-90.0 20.0)
  end
  begin
     id 6 
     name rhipjoint
     direction -0.59141 -0.724168 0.354705   
     length 2.38343  
     axis 0 0 0  XYZ 
  end
  begin
     id 7 
     name rfemur
     direction -0.34202 -0.939693 0   
     length 6.95589   
     axis 0 0 -20   XYZ
    dof rx ry rz
    limits (-160.0 20.0)
           (-70.0 70.0)
           (-70.0 60.0)
  end
  begin
     id 8 
     name rtibia
     direction -0.34202 -0.939693 0   
     length 7.32327   
     axis 0 0 -20   XYZ
    dof rx
    limits (-10.0 170.0)
 end
 begin
     id 9 
     name rfoot
     direction -0.0660461 -0.18146 0.981178   
     length 1.85272  
     axis -90 -7.62852e-016 -20   XYZ
    dof rx rz
    limits (-45.0 90.0)
           (-20.0 70.0)
  end
  begin
     id 10 
     name rtoes
     direction -1.53586e-011 -4.21988e-011 1   
     length 0.93746   
     axis -90 -7.62852e-016 -20   XYZ
    dof rx
    limits (-90.0 20.0)
  end
  begin
     id 11 
     name lowerback
     direction -0.0107982 0.991059 0.13299   
     length 1.98691   
     axis 0 0 0   XYZ
    dof rx ry rz
    limits (-20.0 45.0)
           (-30.0 30.0)
           (-30.0 30.0)
  end
  begin
     id 12 
     name upperback
     direction 0.0076296 0.999916 0.0104576   
     length 1.99501   
     axis 0 0 0   XYZ
    dof rx ry rz
    limits (-20.0 45.0)
           (-30.0 30.0)
           (-30.0 30.0)
  end
  begin
     id 13 
     name thorax
     direction 0.01176 0.998615 -0.0512909   
     length 2.03144   
     axis 0 0 0   XYZ
    dof rx ry rz
    limits (-20.0 45.0)
           (-30.0 30.0)
           (-30.0 30.0)
  end
  begin
     id 14 
     name lowerneck
     direction -0.0171909 0.999644 0.0204011   
     length 1.71818   
     axis 0 0 0   XYZ
    dof rx ry rz
    limits (-20.0 45.0)
           (-30.0 30.0)
           (-30.0 30.0)
  end
  begin
     id 15 
     name upperneck
     direction 0.0250902 0.997482 -0.0663316   
     length 1.66199   
     axis 0 0 0   XYZ
    dof rx ry rz
    limits (-20.0 45.0)
           (-30.0 30.0)
           (-30.0 30.0)
  end
  begin
     id 16
     name head
     direction 0.00881535 0.99956 -0.0283365  
     length 1.81545  
     axis 0 0 0   XYZ
    dof rx ry rz
    limits (-20.0 45.0)
           (-30.0 30.0)
           (-30.0 30.0)
  end
  begin
     id 17 
     name lclavicle
     direction 0.840411 0.486876 -0.238035  
     length 3.30409  
     axis 0 0 0   XYZ
    dof ry rz
    limits (-20.0 10.0)
           (0.0 20.0)
  end
  begin
     id 18 
     name lhumerus
     direction 1 -4.48977e-011 -5.16239e-027   
     length 4.62672   
     axis 180 -30 -90   XYZ
    dof rx ry rz
    limits (-60.0 90.0)
           (-90.0 90.0)
           (-90.0 90.0)
  end
  begin
     id 19
     name lradius
     direction 1 -4.48977e-011 -8.71171e-027   
     length 3.11018   
     axis 180 -30 -90   XYZ
    dof rx
    limits (-10.0 170.0)
  end
  begin
     id 20
     name lwrist
     direction 1 -4.48912e-011 -1.03764e-026   
     length 1.55509   
     axis 9.09556e-015 90 90   XYZ
    dof ry
    limits (-180.0 0.0)
 end
  begin
     id 21 
     name lhand
     direction 1 -4.49072e-011 -2.07528e-026   
     length 0.743834   
     axis 1.3242e-014 90 90   XYZ
    dof rx rz
    limits (-90.0 90.0)
           (-45.0 45.0)
  end
  begin
     id 22 
     name lfingers
     direction 1 -4.48909e-011 -4.15056e-026   
     length 0.599698   
     axis 2.64841e-014 90 90   XYZ
    dof rx
    limits (0.0 90.0)
  end
  begin
     id 23
     name lthumb
     direction 0.707107 -6.35013e-011 0.707107   
     length 0.86105   
     axis -90 45 2.85299e-015   XYZ
    dof rx rz
    limits (-45.0 45.0)
           (-45.0 45.0)
  end
  begin
     id 24 
     name rclavicle
     direction -0.835208 0.500237 -0.228452   
     length 3.2716  
     axis 0 0 0   XYZ 
    dof ry rz
    limits (-10.0 20.0)
           (-20.0 0.0)
  end
  begin
     id 25 
     name rhumerus
     direction -1 -4.48978e-011 -5.1953e-028  
     length 4.55919   
     axis 180 30 90   XYZ
    dof rx ry rz
    limits (-90.0 60.0)
           (-90.0 90.0)
           (-90.0 90.0)
  end
  begin
     id 26 
     name rradius
     direction -1 -4.48961e-011 -5.99546e-027   
     length 3.22748   
     axis 180 30 90   XYZ
    dof rx
    limits (-10.0 170.0)
  end
  begin
     id 27 
     name rwrist
     direction -1 -4.48986e-011 -1.03764e-026   
     length 1.61374   
     axis 9.09556e-015 -90 -90   XYZ
    dof ry
    limits (-180.0 0.0)
  end
  begin
     id 28
     name rhand
     direction -1 -4.4899e-011 -2.07528e-026   
     length 0.700882   
     axis 1.3242e-014 -90 -90   XYZ
    dof rx rz
    limits (-90.0 90.0)
           (-45.0 45.0)
  end
  begin
     id 29
     name rfingers
     direction -1 -4.48991e-011 -4.15056e-026   
     length 0.565069   
     axis 2.64841e-014 -90 -90   XYZ
    dof rx
    limits (0.0 90.0)
  end
  begin
     id 30
     name rthumb
     direction -0.707107 -6.34804e-011 0.707107   
     length 0.811329   
     axis -90 -45 -2.85299e-015   XYZ
    dof rx rz
    limits (-45.0 45.0)
           (-45.0 45.0)
  end
:hierarchy
  begin
    root lhipjoint rhipjoint lowerback
    lhipjoint lfemur
    lfemur ltibia
    ltibia lfoot
    lfoot ltoes
    rhipjoint rfemur
    rfemur rtibia
    rtibia rfoot
    rfoot rtoes
    lowerback upperback
    upperback thorax
    thorax lowerneck lclavicle rclavicle
    lowerneck upperneck
    upperneck head
    lclavicle lhumerus
    lhumerus lradius
    lradius lwrist
    lwrist lhand lthumb
    lhand lfingers
    rclavicle rhumerus
    rhumerus rradius
    rradius rwrist
    rwrist rhand rthumb
    rhand rfingers
  end

#!OML:ASF F:\VICON\USERDATA\INSTALL\SteveWalk\SteveWalk.ASF
:FULLY-SPECIFIED
:DEGREES
177
root -0.0574711 16.3688 -1.74148 15.7194 0.414091 1.86795
lowerback -13.2406 -1.29172 -4.3613
upperback -5.25125 -1.15551 -0.45511
thorax 1.97047 -0.53602 1.81375
lowerneck -3.96156 -1.61535 -2.27852
upperneck 11.6505 -2.60719 5.30312
head 4.22624 -1.10792 1.87141
rclavicle 3.3576e-015 -8.34896e-015
rhumerus -49.2289 -27.6287 -64.4893
rradius 13.072
rwrist 22.9237
rhand -13.1658 -32.3863
rfingers 7.12502
rthumb 12.9334 -61.9655
lclavicle 3.3576e-015 -8.34896e-015
lhumerus -27.1095 2.49257 84.0624
lradius 26.7346
lwrist -4.38298
lhand -18.3222 -15.7427
lfingers 7.12502
lthumb 7.95933 14.0874
rfemur -46.6275 -4.05083 20.5113
rtibia 59.1609
rfoot -13.6647 -2.30388
rtoes -10.0858
lfemur -23.6173 5.36711 -26.5489
ltibia 34.2475
lfoot -24.2367 -8.31279
ltoes 0.798175
178
root -0.0655266 16.3772 -1.53491 15.7835 0.906252 1.65045
lowerback -13.28 -1.41491 -4.24472
upperback -5.25368 -1.33598 -0.254931
thorax 2.00317 -0.625681 1.92941
lowerneck -3.86668 -1.64365 -2.39174
upperneck 11.6605 -2.62534 5.19875
head 4.21413 -1.12834 1.85781
rclavicle -5.56286e-015 -1.0138e-014
rhumerus -53.5083 -33.0286 -56.3971
rradius 11.5493
rwrist 31.1678
rhand -13.3958 -31.9321
rfingers 7.12502
rthumb 12.7116 -61.5252
lclavicle -5.56286e-015 -1.0138e-014
lhumerus -25.8868 0.284995 84.8024
lradius 28.0502
lwrist -2.75021
lhand -18.9732 -15.7608
lfingers 7.12502
lthumb 7.33102 14.0922
rfemur -47.3286 -3.86481 20.9225
rtibia 56.356
rfoot -13.7452 -3.08626
rtoes -7.54594
lfemur -22.555 5.58448 -26.1449
ltibia 33.5623
lfoot -24.4884 -8.7019
ltoes 0.804881
179
root -0.069576 16.3841 -1.31543 15.6798 1.78045 1.57745
lowerback -13.2672 -1.65412 -4.11805
upperback -5.19203 -1.66934 -0.131706
thorax 2.08321 -0.793801 1.93578
lowerneck -3.80539 -1.61315 -2.30335
upperneck 11.378 -2.54267 4.86745
head 4.57085 -1.11975 1.9395
rclavicle 8.7341e-015 2.08724e-014
rhumerus -60.6872 -39.0607 -44.5229
rradius 10.2394
rwrist 41.6576
rhand -13.6628 -31.1956
rfingers 7.12502
rthumb 12.4543 -60.8046
lclavicle 8.7341e-015 2.08724e-014
lhumerus -24.8127 -1.82791 85.3214
lradius 29.4063
lwrist -1.06658
lhand -19.3654 -15.8644
lfingers 7.12502
lthumb 6.95248 14.0014
rfemur -47.5596 -4.25044 21.2642
rtibia 53.3878
rfoot -12.6772 -3.58635
rtoes -1.72846
lfemur -21.1025 5.63157 -25.7784
ltibia 32.7439
lfoot -25.0083 -9.13199
ltoes 0.252825
180
root -0.0706297 16.3794 -1.09192 15.5741 2.52179 1.68001
lowerback -13.2325 -1.87328 -4.09304
upperback -5.08521 -1.96058 -0.118918
thorax 2.19496 -0.942052 1.88979
lowerneck -3.95178 -1.6123 -2.10946
upperneck 11.7993 -2.56811 4.83445
head 4.26101 -1.10406 1.7018
rclavicle 1.09766e-014 -4.96962e-015
rhumerus -65.8541 -41.4849 -37.1049
rradius 9.90247
rwrist 47.3912
rhand -13.0244 -33.4161
rfingers 7.12502
rthumb 13.0696 -62.9866
lclavicle 1.09766e-014 -4.96962e-015
lhumerus -23.6789 -3.52837 85.5753
lradius 30.7262
lwrist 0.250503
lhand -19.7497 -16.1306
lfingers 7.12502
lthumb 6.58146 13.7471
rfemur -47.6373 -4.87231 21.5088
rtibia 50.3081
rfoot -12.0474 -4.29796
rtoes -3.60696
lfemur -19.5829 5.74101 -25.6357
ltibia 31.8356
lfoot -25.4713 -9.79322
ltoes 0.713752
181
root -0.0734173 16.366 -0.884177 15.5862 2.7574 1.71973
lowerback -13.0814 -1.90044 -4.10563
upperback -5.04627 -2.00213 -0.093131
thorax 2.15827 -0.962318 1.92074
lowerneck -4.17473 -1.71806 -2.1305
upperneck 11.6912 -2.69548 4.77254
head 4.26984 -1.169 1.67797
rclavicle 2.82181e-015 -4.96962e-015
rhumerus -71.5538 -43.398 -29.0593
rradius 9.78357
rwrist 52.8296
rhand -12.0308 -36.6211
rfingers 7.12502
rthumb 14.0273 -66.1278
lclavicle 2.82181e-015 -4.96962e-015
lhumerus -22.4771 -5.18223 85.7811
lradius 31.964
lwrist 1.39234
lhand -20.3343 -16.6463
lfingers 7.12502
lthumb 6.01706 13.2483
rfemur -47.9243 -5.02342 21.7167
rtibia 47.1839
rfoot -11.9964 -4.97399
rtoes -8.33669
lfemur -18.2524 6.06572 -25.5483
ltibia 30.8156
lfoot -25.6128 -10.3675
ltoes 1.43932
182
root -0.0703927 16.3526 -0.679376 15.589 2.99063 1.57495
lowerback -12.9731 -1.84441 -3.84643
upperback -5.06465 -1.96749 -0.0154204
thorax 2.07391 -0.944941 1.86438
lowerneck -4.04399 -1.81851 -2.33839
upperneck 11.0724 -2.78193 4.6892
head 4.51424 -1.2469 1.86786
rclavicle -4.76773e-016 -6.95746e-015
rhumerus -77.6476 -44.7254 -20.3865
rradius 9.33837
rwrist 57.5925
rhand -12.1663 -38.2936
rfingers 7.12502
rthumb 13.8967 -67.8092
lclavicle -4.76773e-016 -6.95746e-015
lhumerus -21.3805 -6.90643 86.0066
lradius 33.2088
lwrist 2.47301
lhand -20.542 -16.7295
lfingers 7.12502
lthumb 5.81654 13.1707
rfemur -48.2424 -5.18637 22.0544
rtibia 44.0547
rfoot -12.2245 -5.25041
rtoes -9.38074
lfemur -16.8884 6.40345 -25.282
ltibia 29.7458
lfoot -25.8765 -10.4575
ltoes 0.284677
183
root -0.0741489 16.3449 -0.46667 15.5212 3.37771 1.78541
lowerback -12.8983 -1.95726 -4.01671
upperback -5.03266 -2.09874 -0.000811555
thorax 2.08069 -1.00906 1.95719
lowerneck -3.82162 -1.81402 -2.46101
upperneck 10.852 -2.76378 4.72404
head 4.39239 -1.24594 1.9014
rclavicle 2.08833e-014 -1.19271e-015
rhumerus -83.9208 -45.2055 -11.606
rradius 9.13229
rwrist 62.6556
rhand -13.0025 -38.1337
rfingers 7.12502
rthumb 13.0907 -67.7028
lclavicle 2.08833e-014 -1.19271e-015
lhumerus -20.2387 -8.22111 86.0204
lradius 34.3719
lwrist 3.1544
lhand -21.109 -16.6974
lfingers 7.12502
lthumb 5.2691 13.2171
rfemur -48.4214 -5.50143 22.0286
rtibia 40.9259
rfoot -12.2611 -5.52387
rtoes -10.8397
lfemur -15.413 6.58727 -25.2766
ltibia 28.7361
lfoot -26.2758 -10.5511
ltoes -1.49782
184
root -0.087809 16.3314 -0.253504 15.4177 3.96242 2.17916
lowerback -12.6946 -2.18216 -4.49566
upperback -4.93702 -2.34526 -0.0277164
thorax 2.10169 -1.12956 2.16567
lowerneck -3.90567 -1.84784 -2.30154
upperneck 10.7244 -2.79748 4.55339
head 4.35619 -1.26374 1.81026
rclavicle -1.55052e-014 0
rhumerus -90.2929 -45.0905 -2.80354
rradius 9.28804
rwrist 67.9188
rhand -13.6174 -37.8197
rfingers 7.12502
rthumb 12.498 -67.426
lclavicle -1.55052e-014 0
lhumerus -18.9808 -9.39028 85.8758
lradius 35.412
lwrist 3.80505
lhand -22.4425 -17.4509
lfingers 7.12502
lthumb 3.98147 12.4916
rfemur -48.3363 -5.74163 21.7568
rtibia 37.7989
rfoot -11.9559 -5.92664
rtoes -14.8591
lfemur -13.8704 6.65969 -25.3174
ltibia 27.6736
lfoot -26.4545 -11.0635
ltoes -2.50011
185
root -0.0916062 16.2984 -0.0383141 15.367 4.66654 2.21781
lowerback -12.6877 -2.31938 -4.44499
upperback -4.81225 -2.52972 -0.00875634
thorax 2.24087 -1.22589 2.12699
lowerneck -3.86613 -1.9493 -2.10473
upperneck 10.473 -2.92273 4.38506
head 4.25347 -1.32766 1.70813
rclavicle 1.83006e-014 9.24349e-015
rhumerus -96.632 -44.2437 6.04038
rradius 9.57012
rwrist 72.8467
rhand -14.0863 -37.3814
rfingers 7.12502
rthumb 12.0459 -67.0147
lclavicle 1.83006e-014 9.24349e-015
lhumerus -17.7957 -10.8191 85.8077
lradius 36.5238
lwrist 5.11479
lhand -23.1623 -17.8305
lfingers 7.12502
lthumb 3.28632 12.124
rfemur -48.1397 -6.18369 21.9106
rtibia 34.6876
rfoot -11.847 -5.90203
rtoes -18.3949
lfemur -12.4628 6.62879 -24.9799
ltibia 26.726
lfoot -26.6004 -11.6002
ltoes -3.09671
